<?xml version="1.0" encoding="utf-8"?>
<!-- Generator: Adobe Illustrator 26.0.1, SVG Export Plug-In . SVG Version: 6.00 Build 0)  -->
<svg version="1.1" id="Layer_1" xmlns="http://www.w3.org/2000/svg" xmlns:xlink="http://www.w3.org/1999/xlink" x="0px" y="0px"
	 viewBox="0 0 1200 1200" style="enable-background:new 0 0 1200 1200;" xml:space="preserve">
<style type="text/css">
	.st0{fill:#0F7CB3;}
</style>
<g>
	<path class="st0" d="M616.5,276.41c168.9,0.03,308.88,140.08,308.84,309.01c-0.04,169.16-139.56,308.76-308.69,308.89
		c-168.88,0.13-308.93-139.8-309.05-308.8C307.47,416.98,447.97,276.39,616.5,276.41z M616.06,832.44
		c137.14,0.33,246.89-108.99,247.41-246.44c0.51-136.73-109.39-247.21-246.41-247.7C480.86,337.8,369.8,448.42,369.45,584.94
		C369.1,721.66,479.15,832.11,616.06,832.44z"/>
	<path class="st0" d="M769.56,554.19c0,21.48,0,39.64,0,61.15c-39.54,0-79.1,0-121.93,0c0,42.75,0,82.32,0,123.17
		c-21.47,0-39.62,0-61.13,0c0-39.55,0-79.12,0-121.96c-42.74,0-82.29,0-123.13,0c0-21.48,0-39.63,0-61.15c39.54,0,79.1,0,121.93,0
		c0-42.75,0-82.32,0-123.17c21.47,0,39.62,0,61.13,0c0,39.57,0,79.12,0,121.96C689.18,554.19,728.73,554.19,769.56,554.19z"/>
</g>
</svg>
