<svg xmlns="http://www.w3.org/2000/svg" data-name="Layer 1" viewBox="0 0 30 37.5" x="0px" y="0px"><title>Artboard 22</title><path d="M9.431,9.076c.269-.181.55-.375.832-.569a11.065,11.065,0,0,0,2.375-1.972,1.7,1.7,0,0,0-.559-2.325,1.678,1.678,0,0,0-2.106.282.752.752,0,0,1-1.1,0A1.676,1.676,0,0,0,7.647,3.96a1.659,1.659,0,0,0-.877.25,1.694,1.694,0,0,0-.557,2.331v0A9.45,9.45,0,0,0,8.6,8.507C8.881,8.7,9.163,8.9,9.431,9.076Z" fill="none"/><path d="M20.578,9.2a9.135,9.135,0,0,0-3.466.678.751.751,0,0,0,.569,1.389A7.67,7.67,0,1,1,13.9,14.584a.75.75,0,1,0-1.3-.742A9.173,9.173,0,1,0,20.578,9.2Z"/><path d="M9.422,27.54a9.137,9.137,0,0,0,2.977-.495.749.749,0,0,0-.486-1.418A7.673,7.673,0,1,1,9.422,10.7h.014a7.68,7.68,0,0,1,7.658,7.671,7.57,7.57,0,0,1-.846,3.505.75.75,0,0,0,1.334.688,9.169,9.169,0,0,0-6.06-13.113,8.547,8.547,0,0,0,2.393-2.126A3.19,3.19,0,0,0,9.424,3,3.19,3.19,0,0,0,4.931,7.32a8.56,8.56,0,0,0,2.4,2.126A9.167,9.167,0,0,0,9.422,27.54Zm-3.208-21v0A1.694,1.694,0,0,1,6.77,4.21a1.659,1.659,0,0,1,.877-.25,1.676,1.676,0,0,1,1.228.532.752.752,0,0,0,1.1,0,1.678,1.678,0,0,1,2.106-.282,1.7,1.7,0,0,1,.559,2.325,11.065,11.065,0,0,1-2.375,1.972c-.282.194-.563.388-.832.569-.268-.18-.55-.375-.831-.569A9.45,9.45,0,0,1,6.214,6.543Z"/><text x="0" y="45" fill="#000000" font-size="5px" font-weight="bold" font-family="'Helvetica Neue', Helvetica, Arial-Unicode, Arial, Sans-serif">Created by myiconfinder</text><text x="0" y="50" fill="#000000" font-size="5px" font-weight="bold" font-family="'Helvetica Neue', Helvetica, Arial-Unicode, Arial, Sans-serif">from the Noun Project</text></svg>