<svg version="1.1" xmlns="http://www.w3.org/2000/svg" xmlns:xlink="http://www.w3.org/1999/xlink" width="256.000000pt" height="256.000000pt" viewBox="0,0,255.98959,255.98959"><g fill-opacity="0.63137" fill="#000000" fill-rule="nonzero" stroke="none" stroke-width="1" stroke-linecap="butt" stroke-linejoin="miter" stroke-miterlimit="10" stroke-dasharray="" stroke-dashoffset="0" font-family="none" font-weight="none" font-size="none" text-anchor="none" style="mix-blend-mode: normal"><g transform="translate(-0.0052,0.10458)"><g transform="translate(0,256) scale(0.1,-0.1)"><path d="M1140,2554c-84,-11 -201,-39 -280,-66c-428,-150 -739,-507 -836,-958c-26,-119 -26,-381 0,-500c111,-514 492,-895 1006,-1006c118,-25 381,-26 498,0c517,111 897,490 1008,1006c26,119 26,381 0,500c-110,508 -483,887 -986,1001c-83,19 -331,33 -410,23zM1541,2327c191,-49 352,-140 491,-275c434,-422 434,-1124 0,-1544c-432,-418 -1114,-407 -1528,23c-353,368 -403,918 -123,1349c52,79 214,243 289,292c136,89 304,154 455,178c103,16 308,4 416,-23z"></path><path d="M1244,1906c-65,-28 -64,-24 -64,-413v-353l29,-32c24,-27 36,-33 71,-33c35,0 47,6 71,33l29,32v353c0,391 1,385 -66,413c-39,16 -32,16 -70,0z"></path><path d="M1223,935c-68,-29 -97,-141 -52,-199c80,-102 239,-54 239,73c0,58 -29,107 -75,127c-43,17 -71,17 -112,-1z"></path></g></g></g></svg>